# xmcd
#
# Track frame offsets:
#	150
#	27440
#	46814
#	59196
#	86338
#	108353
#	124591
#	134420
#	172470
#	198088
#	231327
#	257908
#
# Disc length: 3743 seconds
#
# Revision: 0
# Processed by: cddbd v1.5.2PL0 Copyright (c) Steve Scherf et al.
# Submitted via: audiograbber 1.83.01
#
DISCID=ae0e9d0c
DTITLE=Аркадий Северный - Херсонкий концерт [CD 2)
DYEAR=1979
DGENRE=
TTITLE0=Два громилы
TTITLE1=Гоп со смыком
TTITLE2=Алешка жарил на баяне
TTITLE3=Шел трамвай 10 номер
TTITLE4=Канаю я
TTITLE5=Раз канаю я на бан
TTITLE6=В Одессе я родился
TTITLE7=Попурри
TTITLE8=Одесса-мама,Ростов-папа
TTITLE9=Здравствуйте
TTITLE10=С одесского кичмана
TTITLE11=Свадьба в доме Зуя
EXTD=
EXTT0=
EXTT1=
EXTT2=
EXTT3=
EXTT4=
EXTT5=
EXTT6=
EXTT7=
EXTT8=
EXTT9=
EXTT10=
EXTT11=
PLAYORDER=
